<svg xmlns="http://www.w3.org/2000/svg" xmlns:xlink="http://www.w3.org/1999/xlink" preserveAspectRatio="xMidYMid" width="1785.688" height="1117.753" viewBox="0 0 1785.688 1117.753">
  <defs>
    <style>
      .cls-1 {
        fill: #000;
      }

      .cls-1, .cls-5 {
        fill-rule: evenodd;
      }

      .cls-2, .cls-5 {
        fill: #2c434e;
      }

      .cls-3, .cls-4 {
        font-size: 44px;
      }

      .cls-4, .cls-7, .cls-9 {
        fill: #fff;
        text-anchor: middle;
        font-family: "Helvetica-Light";
      }

      .cls-6, .cls-7 {
        font-size: 65px;
      }

      .cls-8, .cls-9 {
        font-size: 40px;
      }

      .cls-8 {
        opacity: 0.8;
      }
    </style>
  </defs>
  <g>
    <path d="M1373.876,217.642 L1373.876,213.953 L1607.773,213.953 L1607.773,217.642 L1373.876,217.642 Z" class="cls-1"/>
    <path d="M1373.876,494.319 L1373.876,490.630 L1607.773,490.630 L1607.773,494.319 L1373.876,494.319 Z" class="cls-1"/>
    <path d="M1607.773,479.563 L1607.773,483.252 L1373.876,483.252 L1373.876,479.563 L1607.773,479.563 Z" class="cls-1"/>
    <path d="M1283.120,883.880 L1279.431,883.880 L1279.431,606.465 L1283.120,606.465 L1283.120,883.880 Z" class="cls-1"/>
    <path d="M579.952,424.227 L579.952,420.538 L663.329,420.538 L663.329,424.227 L579.952,424.227 Z" class="cls-1"/>
    <path d="M483.294,824.855 L479.605,824.855 L479.605,647.782 L483.294,647.782 L483.294,824.855 Z" class="cls-1"/>
    <path d="M481.818,649.258 L481.818,645.569 L629.388,645.569 L629.388,649.258 L481.818,649.258 Z" class="cls-1"/>
    <path d="M630.863,647.782 L627.174,647.782 L627.174,581.380 L630.863,581.380 L630.863,647.782 Z" class="cls-1"/>
    <path d="M629.388,582.855 L629.388,579.166 L663.329,579.166 L663.329,582.855 L629.388,582.855 Z" class="cls-1"/>
    <path d="M481.818,822.642 L481.818,826.331 L378.520,826.331 L378.520,822.642 L481.818,822.642 Z" class="cls-1"/>
    <path d="M378.520,815.264 L378.520,811.575 L470.751,811.575 L470.751,815.264 L378.520,815.264 Z" class="cls-1"/>
    <path d="M472.226,813.788 L468.537,813.788 L468.537,636.715 L472.226,636.715 L472.226,813.788 Z" class="cls-1"/>
    <path d="M470.751,638.191 L470.751,634.501 L618.320,634.501 L618.320,638.191 L470.751,638.191 Z" class="cls-1"/>
    <path d="M619.796,636.715 L616.106,636.715 L616.106,570.312 L619.796,570.312 L619.796,636.715 Z" class="cls-1"/>
    <path d="M618.320,571.788 L618.320,568.099 L663.329,568.099 L663.329,571.788 L618.320,571.788 Z" class="cls-1"/>
    <path d="M275.959,230.184 L279.648,230.184 L279.648,271.502 L275.959,271.502 L275.959,230.184 Z" class="cls-1"/>
    <path d="M278.910,272.977 L278.910,269.288 L663.329,269.288 L663.329,272.977 L278.910,272.977 Z" class="cls-1"/>
    <path d="M421.315,230.184 L425.004,230.184 L425.004,260.434 L421.315,260.434 L421.315,230.184 Z" class="cls-1"/>
    <path d="M423.528,261.910 L423.528,258.221 L663.329,258.221 L663.329,261.910 L423.528,261.910 Z" class="cls-1"/>
    <path d="M830.082,838.136 L826.393,838.136 L826.393,606.465 L830.082,606.465 L830.082,838.136 Z" class="cls-1"/>
    <path d="M763.676,606.465 L767.365,606.465 L767.365,678.032 L763.676,678.032 L763.676,606.465 Z" class="cls-1"/>
    <path d="M756.297,678.032 L752.608,678.032 L752.608,606.465 L756.297,606.465 L756.297,678.032 Z" class="cls-1"/>
    <path d="M700.959,606.465 L704.648,606.465 L704.648,838.136 L700.959,838.136 L700.959,606.465 Z" class="cls-1"/>
    <path d="M693.580,838.136 L689.891,838.136 L689.891,606.465 L693.580,606.465 L693.580,838.136 Z" class="cls-1"/>
    <path d="M729.735,944.380 L729.735,940.691 L796.141,940.691 L796.141,944.380 L729.735,944.380 Z" class="cls-1"/>
    <path d="M796.141,929.624 L796.141,933.313 L729.735,933.313 L729.735,929.624 L796.141,929.624 Z" class="cls-1"/>
    <path d="M729.735,922.245 L729.735,918.556 L796.141,918.556 L796.141,922.245 L729.735,922.245 Z" class="cls-1"/>
    <path d="M796.141,907.489 L796.141,911.178 L729.735,911.178 L729.735,907.489 L796.141,907.489 Z" class="cls-1"/>
    <path d="M729.735,889.044 L729.735,885.355 L796.141,885.355 L796.141,889.044 L729.735,889.044 Z" class="cls-1"/>
    <path d="M796.141,896.422 L796.141,900.111 L729.735,900.111 L729.735,896.422 L796.141,896.422 Z" class="cls-1"/>
    <path d="M729.735,877.977 L729.735,874.288 L796.141,874.288 L796.141,877.977 L729.735,877.977 Z" class="cls-1"/>
    <path d="M796.141,863.221 L796.141,866.910 L729.735,866.910 L729.735,863.221 L796.141,863.221 Z" class="cls-1"/>
    <path d="M580.452,466.011 L580.452,462.324 L664.454,462.324 L664.454,466.011 L580.452,466.011 Z" class="cls-1"/>
    <path d="M664.454,473.385 L664.454,477.072 L580.452,477.072 L580.452,473.385 L664.454,473.385 Z" class="cls-1"/>
    <path d="M580.452,488.133 L580.452,484.446 L664.454,484.446 L664.454,488.133 L580.452,488.133 Z" class="cls-1"/>
    <path d="M664.454,495.508 L664.454,499.195 L580.452,499.195 L580.452,495.508 L664.454,495.508 Z" class="cls-1"/>
    <path d="M580.452,510.256 L580.452,506.569 L664.454,506.569 L664.454,510.256 L580.452,510.256 Z" class="cls-1"/>
    <path d="M664.454,517.630 L664.454,521.317 L580.452,521.317 L580.452,517.630 L664.454,517.630 Z" class="cls-1"/>
    <path d="M429.431,465.544 L429.431,461.855 L513.546,461.855 L513.546,465.544 L429.431,465.544 Z" class="cls-1"/>
    <path d="M513.546,472.922 L513.546,476.611 L429.431,476.611 L429.431,472.922 L513.546,472.922 Z" class="cls-1"/>
    <path d="M513.546,483.989 L513.546,487.678 L429.431,487.678 L429.431,483.989 L513.546,483.989 Z" class="cls-1"/>
    <path d="M429.431,498.745 L429.431,495.056 L513.546,495.056 L513.546,498.745 L429.431,498.745 Z" class="cls-1"/>
    <path d="M513.546,506.123 L513.546,509.812 L429.431,509.812 L429.431,506.123 L513.546,506.123 Z" class="cls-1"/>
    <path d="M429.431,520.880 L429.431,517.191 L513.546,517.191 L513.546,520.880 L429.431,520.880 Z" class="cls-1"/>
    <path d="M663.329,323.886 L663.329,327.575 L429.431,327.575 L429.431,323.886 L663.329,323.886 Z" class="cls-1"/>
    <path d="M429.431,338.642 L429.431,334.953 L663.329,334.953 L663.329,338.642 L429.431,338.642 Z" class="cls-1"/>
    <path d="M663.329,346.020 L663.329,349.709 L429.431,349.709 L429.431,346.020 L663.329,346.020 Z" class="cls-1"/>
    <path d="M429.431,360.776 L429.431,357.087 L663.329,357.087 L663.329,360.776 L429.431,360.776 Z" class="cls-1"/>
    <path d="M261.940,305.441 L258.251,305.441 L258.251,230.184 L261.940,230.184 L261.940,305.441 Z" class="cls-1"/>
    <path d="M247.183,230.184 L250.872,230.184 L250.872,305.441 L247.183,305.441 L247.183,230.184 Z" class="cls-1"/>
    <path d="M239.804,305.441 L236.115,305.441 L236.115,230.184 L239.804,230.184 L239.804,305.441 Z" class="cls-1"/>
    <path d="M225.047,230.184 L228.737,230.184 L228.737,305.441 L225.047,305.441 L225.047,230.184 Z" class="cls-1"/>
    <path d="M217.669,305.441 L213.980,305.441 L213.980,230.184 L217.669,230.184 L217.669,305.441 Z" class="cls-1"/>
    <path d="M202.912,230.184 L206.601,230.184 L206.601,305.441 L202.912,305.441 L202.912,230.184 Z" class="cls-1"/>
    <path d="M195.533,305.441 L191.844,305.441 L191.844,230.184 L195.533,230.184 L195.533,305.441 Z" class="cls-1"/>
    <path d="M180.777,230.184 L184.466,230.184 L184.466,305.441 L180.777,305.441 L180.777,230.184 Z" class="cls-1"/>
    <path d="M409.509,305.441 L405.820,305.441 L405.820,230.184 L409.509,230.184 L409.509,305.441 Z" class="cls-1"/>
    <path d="M398.442,305.441 L394.752,305.441 L394.752,230.184 L398.442,230.184 L398.442,305.441 Z" class="cls-1"/>
    <path d="M383.684,230.184 L387.374,230.184 L387.374,305.441 L383.684,305.441 L383.684,230.184 Z" class="cls-1"/>
    <path d="M376.306,305.441 L372.617,305.441 L372.617,230.184 L376.306,230.184 L376.306,305.441 Z" class="cls-1"/>
    <path d="M365.238,305.441 L361.549,305.441 L361.549,230.184 L365.238,230.184 L365.238,305.441 Z" class="cls-1"/>
    <path d="M350.481,230.184 L354.171,230.184 L354.171,305.441 L350.481,305.441 L350.481,230.184 Z" class="cls-1"/>
    <path d="M343.103,305.441 L339.414,305.441 L339.414,230.184 L343.103,230.184 L343.103,305.441 Z" class="cls-1"/>
    <path d="M328.346,230.184 L332.035,230.184 L332.035,305.441 L328.346,305.441 L328.346,230.184 Z" class="cls-1"/>
    <path d="M332.035,748.124 L335.724,748.124 L335.724,786.489 L332.035,786.489 L332.035,748.124 Z" class="cls-1"/>
    <path d="M324.657,786.489 L320.968,786.489 L320.968,748.124 L324.657,748.124 L324.657,786.489 Z" class="cls-1"/>
    <path d="M309.900,748.124 L313.589,748.124 L313.589,786.489 L309.900,786.489 L309.900,748.124 Z" class="cls-1"/>
    <path d="M302.521,786.489 L298.832,786.489 L298.832,748.124 L302.521,748.124 L302.521,786.489 Z" class="cls-1"/>
    <path d="M287.764,748.124 L291.454,748.124 L291.454,786.489 L287.764,786.489 L287.764,748.124 Z" class="cls-1"/>
    <path d="M280.386,786.489 L276.697,786.489 L276.697,748.124 L280.386,748.124 L280.386,786.489 Z" class="cls-1"/>
    <path d="M265.629,748.124 L269.318,748.124 L269.318,786.489 L265.629,786.489 L265.629,748.124 Z" class="cls-1"/>
    <path d="M258.251,786.489 L254.561,786.489 L254.561,748.124 L258.251,748.124 L258.251,786.489 Z" class="cls-1"/>
    <path d="M1232.209,883.880 L1228.520,883.880 L1228.520,606.465 L1232.209,606.465 L1232.209,883.880 Z" class="cls-1"/>
    <path d="M1217.452,606.465 L1221.141,606.465 L1221.141,883.880 L1217.452,883.880 L1217.452,606.465 Z" class="cls-1"/>
    <path d="M1210.074,883.880 L1206.384,883.880 L1206.384,606.465 L1210.074,606.465 L1210.074,883.880 Z" class="cls-1"/>
    <path d="M1195.317,606.465 L1199.006,606.465 L1199.006,883.880 L1195.317,883.880 L1195.317,606.465 Z" class="cls-1"/>
    <path d="M1187.938,883.880 L1184.249,883.880 L1184.249,606.465 L1187.938,606.465 L1187.938,883.880 Z" class="cls-1"/>
    <path d="M1763.459,264.861 L1767.148,264.861 L1767.148,305.441 L1763.459,305.441 L1763.459,264.861 Z" class="cls-1"/>
    <path d="M1756.080,305.441 L1752.391,305.441 L1752.391,264.861 L1756.080,264.861 L1756.080,305.441 Z" class="cls-1"/>
    <path d="M1741.323,264.861 L1745.013,264.861 L1745.013,305.441 L1741.323,305.441 L1741.323,264.861 Z" class="cls-1"/>
    <path d="M1733.945,305.441 L1730.256,305.441 L1730.256,264.861 L1733.945,264.861 L1733.945,305.441 Z" class="cls-1"/>
    <path d="M1719.188,264.861 L1722.877,264.861 L1722.877,305.441 L1719.188,305.441 L1719.188,264.861 Z" class="cls-1"/>
    <path d="M1711.809,305.441 L1708.120,305.441 L1708.120,264.861 L1711.809,264.861 L1711.809,305.441 Z" class="cls-1"/>
    <path d="M1697.052,264.861 L1700.742,264.861 L1700.742,305.441 L1697.052,305.441 L1697.052,264.861 Z" class="cls-1"/>
    <path d="M1689.674,305.441 L1685.985,305.441 L1685.985,264.861 L1689.674,264.861 L1689.674,305.441 Z" class="cls-1"/>
    <path d="M1678.606,1027.752 L1674.917,1027.752 L1674.917,942.904 L1678.606,942.904 L1678.606,1027.752 Z" class="cls-1"/>
    <path d="M1230.733,1029.227 L1230.733,1025.538 L1676.393,1025.538 L1676.393,1029.227 L1230.733,1029.227 Z" class="cls-1"/>
    <path d="M1228.520,950.282 L1232.209,950.282 L1232.209,1027.752 L1228.520,1027.752 L1228.520,950.282 Z" class="cls-1"/>
    <path d="M1663.849,942.904 L1667.539,942.904 L1667.539,1016.684 L1663.849,1016.684 L1663.849,942.904 Z" class="cls-1"/>
    <path d="M1665.325,1014.471 L1665.325,1018.160 L1219.665,1018.160 L1219.665,1014.471 L1665.325,1014.471 Z" class="cls-1"/>
    <path d="M1221.141,1016.684 L1217.452,1016.684 L1217.452,950.282 L1221.141,950.282 L1221.141,1016.684 Z" class="cls-1"/>
    <path d="M1656.471,1005.617 L1652.782,1005.617 L1652.782,942.904 L1656.471,942.904 L1656.471,1005.617 Z" class="cls-1"/>
    <path d="M1208.598,1007.093 L1208.598,1003.404 L1654.258,1003.404 L1654.258,1007.093 L1208.598,1007.093 Z" class="cls-1"/>
    <path d="M1206.384,950.282 L1210.074,950.282 L1210.074,1005.617 L1206.384,1005.617 L1206.384,950.282 Z" class="cls-1"/>
    <path d="M1645.403,994.550 L1641.714,994.550 L1641.714,942.904 L1645.403,942.904 L1645.403,994.550 Z" class="cls-1"/>
    <path d="M1643.190,992.337 L1643.190,996.026 L1197.530,996.026 L1197.530,992.337 L1643.190,992.337 Z" class="cls-1"/>
    <path d="M1199.006,994.550 L1195.317,994.550 L1195.317,950.282 L1199.006,950.282 L1199.006,994.550 Z" class="cls-1"/>
    <path d="M1634.336,983.483 L1630.646,983.483 L1630.646,942.904 L1634.336,942.904 L1634.336,983.483 Z" class="cls-1"/>
    <path d="M1186.462,984.959 L1186.462,981.270 L1632.122,981.270 L1632.122,984.959 L1186.462,984.959 Z" class="cls-1"/>
    <path d="M1184.249,950.282 L1187.938,950.282 L1187.938,983.483 L1184.249,983.483 L1184.249,950.282 Z" class="cls-1"/>
    <path d="M1173.438,950.312 L1177.438,950.312 L1177.438,972.313 L1173.438,972.313 L1173.438,950.312 Z" class="cls-1"/>
    <path d="M1175.438,974.313 L1175.438,970.312 L1621.438,970.312 L1621.438,974.313 L1175.438,974.313 Z" class="cls-1"/>
    <path d="M1623.438,972.312 L1619.438,972.312 L1619.438,943.313 L1623.438,943.313 L1623.438,972.312 Z" class="cls-1"/>
    <path d="M1763.459,942.904 L1767.148,942.904 L1767.148,1116.288 L1763.459,1116.288 L1763.459,942.904 Z" class="cls-1"/>
    <path d="M2.218,3.678 L2.218,-0.011 L1764.935,-0.011 L1764.935,3.678 L2.218,3.678 Z" class="cls-1"/>
    <path d="M3.693,1116.288 L0.004,1116.288 L0.004,2.203 L3.693,2.203 L3.693,1116.288 Z" class="cls-1"/>
    <path d="M1764.935,1114.075 L1764.935,1117.764 L2.218,1117.764 L2.218,1114.075 L1764.935,1114.075 Z" class="cls-1"/>
    <path d="M1767.148,167.471 L1763.459,167.471 L1763.459,2.203 L1767.148,2.203 L1767.148,167.471 Z" class="cls-1"/>
    <path d="M332.035,852.892 L335.724,852.892 L335.724,1116.288 L332.035,1116.288 L332.035,852.892 Z" class="cls-1"/>
    <path d="M261.940,163.782 L258.251,163.782 L258.251,2.203 L261.940,2.203 L261.940,163.782 Z" class="cls-1"/>
    <path d="M405.820,2.203 L409.509,2.203 L409.509,163.782 L405.820,163.782 L405.820,2.203 Z" class="cls-1"/>
    <path d="M990.933,700.904 L990.933,704.593 L796.141,704.593 L796.141,700.904 L990.933,700.904 Z" class="cls-1"/>
    <path d="M992.408,1116.288 L988.719,1116.288 L988.719,703.117 L992.408,703.117 L992.408,1116.288 Z" class="cls-1"/>
    <path d="M529.778,704.593 L529.778,700.904 L729.735,700.904 L729.735,704.593 L529.778,704.593 Z" class="cls-1"/>
    <path d="M531.254,1116.288 L527.565,1116.288 L527.565,703.117 L531.254,703.117 L531.254,1116.288 Z" class="cls-1"/>
    <path d="M990.933,863.221 L990.933,866.910 L862.547,866.910 L862.547,863.221 L990.933,863.221 Z" class="cls-1"/>
    <path d="M663.329,863.221 L663.329,866.910 L529.778,866.910 L529.778,863.221 L663.329,863.221 Z" class="cls-1"/>
    <path d="M1756.080,1105.221 L1752.391,1105.221 L1752.391,942.904 L1756.080,942.904 L1756.080,1105.221 Z" class="cls-1"/>
    <path d="M1753.867,11.056 L1753.867,14.745 L13.285,14.745 L13.285,11.056 L1753.867,11.056 Z" class="cls-1"/>
    <path d="M14.761,1105.221 L11.072,1105.221 L11.072,13.270 L14.761,13.270 L14.761,1105.221 Z" class="cls-1"/>
    <path d="M13.285,1106.697 L13.285,1103.008 L1753.867,1103.008 L1753.867,1106.697 L13.285,1106.697 Z" class="cls-1"/>
    <path d="M1756.080,167.471 L1752.391,167.471 L1752.391,13.270 L1756.080,13.270 L1756.080,167.471 Z" class="cls-1"/>
    <path d="M324.657,1105.221 L320.968,1105.221 L320.968,852.892 L324.657,852.892 L324.657,1105.221 Z" class="cls-1"/>
    <path d="M247.183,13.270 L250.872,13.270 L250.872,163.782 L247.183,163.782 L247.183,13.270 Z" class="cls-1"/>
    <path d="M398.442,163.782 L394.752,163.782 L394.752,13.270 L398.442,13.270 L398.442,163.782 Z" class="cls-1"/>
    <path d="M977.652,714.184 L981.341,714.184 L981.341,1105.221 L977.652,1105.221 L977.652,714.184 Z" class="cls-1"/>
    <path d="M796.141,715.660 L796.141,711.971 L979.865,711.971 L979.865,715.660 L796.141,715.660 Z" class="cls-1"/>
    <path d="M538.633,714.184 L542.322,714.184 L542.322,1105.221 L538.633,1105.221 L538.633,714.184 Z" class="cls-1"/>
    <path d="M729.735,711.971 L729.735,715.660 L540.846,715.660 L540.846,711.971 L729.735,711.971 Z" class="cls-1"/>
    <path d="M862.547,877.977 L862.547,874.288 L979.865,874.288 L979.865,877.977 L862.547,877.977 Z" class="cls-1"/>
    <path d="M540.846,877.977 L540.846,874.288 L663.329,874.288 L663.329,877.977 L540.846,877.977 Z" class="cls-1"/>
    <path d="M1741.323,942.904 L1745.013,942.904 L1745.013,1094.154 L1741.323,1094.154 L1741.323,942.904 Z" class="cls-1"/>
    <path d="M24.353,25.812 L24.353,22.123 L1742.799,22.123 L1742.799,25.812 L24.353,25.812 Z" class="cls-1"/>
    <path d="M25.829,1094.154 L22.139,1094.154 L22.139,24.337 L25.829,24.337 L25.829,1094.154 Z" class="cls-1"/>
    <path d="M1742.799,1091.941 L1742.799,1095.630 L24.353,1095.630 L24.353,1091.941 L1742.799,1091.941 Z" class="cls-1"/>
    <path d="M1741.323,24.337 L1745.013,24.337 L1745.013,167.471 L1741.323,167.471 L1741.323,24.337 Z" class="cls-1"/>
    <path d="M309.900,852.892 L313.589,852.892 L313.589,1094.154 L309.900,1094.154 L309.900,852.892 Z" class="cls-1"/>
    <path d="M239.804,163.782 L236.115,163.782 L236.115,24.337 L239.804,24.337 L239.804,163.782 Z" class="cls-1"/>
    <path d="M383.684,24.337 L387.374,24.337 L387.374,163.782 L383.684,163.782 L383.684,24.337 Z" class="cls-1"/>
    <path d="M968.797,723.038 L968.797,726.727 L796.141,726.727 L796.141,723.038 L968.797,723.038 Z" class="cls-1"/>
    <path d="M970.273,1094.154 L966.584,1094.154 L966.584,725.252 L970.273,725.252 L970.273,1094.154 Z" class="cls-1"/>
    <path d="M551.914,726.727 L551.914,723.038 L729.735,723.038 L729.735,726.727 L551.914,726.727 Z" class="cls-1"/>
    <path d="M553.389,1094.154 L549.700,1094.154 L549.700,725.252 L553.389,725.252 L553.389,1094.154 Z" class="cls-1"/>
    <path d="M968.797,885.355 L968.797,889.044 L862.547,889.044 L862.547,885.355 L968.797,885.355 Z" class="cls-1"/>
    <path d="M663.329,885.355 L663.329,889.044 L551.914,889.044 L551.914,885.355 L663.329,885.355 Z" class="cls-1"/>
    <path d="M1733.945,1083.087 L1730.256,1083.087 L1730.256,942.904 L1733.945,942.904 L1733.945,1083.087 Z" class="cls-1"/>
    <path d="M1731.731,33.191 L1731.731,36.880 L35.421,36.880 L35.421,33.191 L1731.731,33.191 Z" class="cls-1"/>
    <path d="M33.207,35.404 L36.896,35.404 L36.896,1083.087 L33.207,1083.087 L33.207,35.404 Z" class="cls-1"/>
    <path d="M35.421,1084.562 L35.421,1080.873 L1731.731,1080.873 L1731.731,1084.562 L35.421,1084.562 Z" class="cls-1"/>
    <path d="M1733.945,167.471 L1730.256,167.471 L1730.256,35.404 L1733.945,35.404 L1733.945,167.471 Z" class="cls-1"/>
    <path d="M302.521,1083.087 L298.832,1083.087 L298.832,852.892 L302.521,852.892 L302.521,1083.087 Z" class="cls-1"/>
    <path d="M225.047,35.404 L228.737,35.404 L228.737,163.782 L225.047,163.782 L225.047,35.404 Z" class="cls-1"/>
    <path d="M376.306,163.782 L372.617,163.782 L372.617,35.404 L376.306,35.404 L376.306,163.782 Z" class="cls-1"/>
    <path d="M955.516,736.319 L959.205,736.319 L959.205,1083.087 L955.516,1083.087 L955.516,736.319 Z" class="cls-1"/>
    <path d="M796.141,737.794 L796.141,734.105 L957.730,734.105 L957.730,737.794 L796.141,737.794 Z" class="cls-1"/>
    <path d="M560.768,736.319 L564.457,736.319 L564.457,1083.087 L560.768,1083.087 L560.768,736.319 Z" class="cls-1"/>
    <path d="M729.735,734.105 L729.735,737.794 L562.981,737.794 L562.981,734.105 L729.735,734.105 Z" class="cls-1"/>
    <path d="M862.547,900.111 L862.547,896.422 L957.730,896.422 L957.730,900.111 L862.547,900.111 Z" class="cls-1"/>
    <path d="M562.981,900.111 L562.981,896.422 L663.329,896.422 L663.329,900.111 L562.981,900.111 Z" class="cls-1"/>
    <path d="M1719.188,942.904 L1722.877,942.904 L1722.877,1072.020 L1719.188,1072.020 L1719.188,942.904 Z" class="cls-1"/>
    <path d="M1720.664,44.258 L1720.664,47.947 L46.488,47.947 L46.488,44.258 L1720.664,44.258 Z" class="cls-1"/>
    <path d="M47.964,1072.020 L44.275,1072.020 L44.275,46.471 L47.964,46.471 L47.964,1072.020 Z" class="cls-1"/>
    <path d="M1720.664,1069.806 L1720.664,1073.495 L46.488,1073.495 L46.488,1069.806 L1720.664,1069.806 Z" class="cls-1"/>
    <path d="M1719.188,46.471 L1722.877,46.471 L1722.877,167.471 L1719.188,167.471 L1719.188,46.471 Z" class="cls-1"/>
    <path d="M287.764,852.892 L291.454,852.892 L291.454,1072.020 L287.764,1072.020 L287.764,852.892 Z" class="cls-1"/>
    <path d="M217.669,163.782 L213.980,163.782 L213.980,46.471 L217.669,46.471 L217.669,163.782 Z" class="cls-1"/>
    <path d="M361.549,46.471 L365.238,46.471 L365.238,163.782 L361.549,163.782 L361.549,46.471 Z" class="cls-1"/>
    <path d="M946.662,745.172 L946.662,748.861 L796.141,748.861 L796.141,745.172 L946.662,745.172 Z" class="cls-1"/>
    <path d="M948.138,1072.020 L944.449,1072.020 L944.449,747.386 L948.138,747.386 L948.138,1072.020 Z" class="cls-1"/>
    <path d="M571.836,747.386 L575.525,747.386 L575.525,1072.020 L571.836,1072.020 L571.836,747.386 Z" class="cls-1"/>
    <path d="M729.735,745.172 L729.735,748.861 L574.049,748.861 L574.049,745.172 L729.735,745.172 Z" class="cls-1"/>
    <path d="M946.662,907.489 L946.662,911.178 L862.547,911.178 L862.547,907.489 L946.662,907.489 Z" class="cls-1"/>
    <path d="M663.329,907.489 L663.329,911.178 L574.049,911.178 L574.049,907.489 L663.329,907.489 Z" class="cls-1"/>
    <path d="M1711.809,1060.953 L1708.120,1060.953 L1708.120,942.904 L1711.809,942.904 L1711.809,1060.953 Z" class="cls-1"/>
    <path d="M57.556,59.014 L57.556,55.325 L1709.596,55.325 L1709.596,59.014 L57.556,59.014 Z" class="cls-1"/>
    <path d="M59.032,1060.953 L55.343,1060.953 L55.343,57.538 L59.032,57.538 L59.032,1060.953 Z" class="cls-1"/>
    <path d="M57.556,1062.428 L57.556,1058.739 L1709.596,1058.739 L1709.596,1062.428 L57.556,1062.428 Z" class="cls-1"/>
    <path d="M1711.809,167.471 L1708.120,167.471 L1708.120,57.538 L1711.809,57.538 L1711.809,167.471 Z" class="cls-1"/>
    <path d="M280.386,1060.953 L276.697,1060.953 L276.697,852.892 L280.386,852.892 L280.386,1060.953 Z" class="cls-1"/>
    <path d="M202.912,57.538 L206.601,57.538 L206.601,163.782 L202.912,163.782 L202.912,57.538 Z" class="cls-1"/>
    <path d="M354.171,163.782 L350.481,163.782 L350.481,57.538 L354.171,57.538 L354.171,163.782 Z" class="cls-1"/>
    <path d="M933.381,758.453 L937.070,758.453 L937.070,1060.953 L933.381,1060.953 L933.381,758.453 Z" class="cls-1"/>
    <path d="M796.141,759.928 L796.141,756.239 L935.594,756.239 L935.594,759.928 L796.141,759.928 Z" class="cls-1"/>
    <path d="M585.117,759.928 L585.117,756.239 L729.735,756.239 L729.735,759.928 L585.117,759.928 Z" class="cls-1"/>
    <path d="M586.593,1060.953 L582.903,1060.953 L582.903,758.453 L586.593,758.453 L586.593,1060.953 Z" class="cls-1"/>
    <path d="M862.547,922.245 L862.547,918.556 L935.594,918.556 L935.594,922.245 L862.547,922.245 Z" class="cls-1"/>
    <path d="M585.117,922.245 L585.117,918.556 L663.329,918.556 L663.329,922.245 L585.117,922.245 Z" class="cls-1"/>
    <path d="M1697.052,942.904 L1700.742,942.904 L1700.742,1049.886 L1697.052,1049.886 L1697.052,942.904 Z" class="cls-1"/>
    <path d="M1698.528,66.392 L1698.528,70.081 L68.624,70.081 L68.624,66.392 L1698.528,66.392 Z" class="cls-1"/>
    <path d="M70.099,1049.886 L66.410,1049.886 L66.410,68.605 L70.099,68.605 L70.099,1049.886 Z" class="cls-1"/>
    <path d="M1698.528,1047.672 L1698.528,1051.361 L68.624,1051.361 L68.624,1047.672 L1698.528,1047.672 Z" class="cls-1"/>
    <path d="M1700.742,167.471 L1697.052,167.471 L1697.052,68.605 L1700.742,68.605 L1700.742,167.471 Z" class="cls-1"/>
    <path d="M265.629,852.892 L269.318,852.892 L269.318,1049.886 L265.629,1049.886 L265.629,852.892 Z" class="cls-1"/>
    <path d="M191.844,68.605 L195.533,68.605 L195.533,163.782 L191.844,163.782 L191.844,68.605 Z" class="cls-1"/>
    <path d="M339.414,68.605 L343.103,68.605 L343.103,163.782 L339.414,163.782 L339.414,68.605 Z" class="cls-1"/>
    <path d="M924.527,767.306 L924.527,770.995 L796.141,770.995 L796.141,767.306 L924.527,767.306 Z" class="cls-1"/>
    <path d="M926.002,1049.886 L922.313,1049.886 L922.313,769.520 L926.002,769.520 L926.002,1049.886 Z" class="cls-1"/>
    <path d="M596.184,770.995 L596.184,767.306 L729.735,767.306 L729.735,770.995 L596.184,770.995 Z" class="cls-1"/>
    <path d="M597.660,1049.886 L593.971,1049.886 L593.971,769.520 L597.660,769.520 L597.660,1049.886 Z" class="cls-1"/>
    <path d="M924.527,929.624 L924.527,933.313 L862.547,933.313 L862.547,929.624 L924.527,929.624 Z" class="cls-1"/>
    <path d="M663.329,929.624 L663.329,933.313 L596.184,933.313 L596.184,929.624 L663.329,929.624 Z" class="cls-1"/>
    <path d="M1689.674,1038.819 L1685.985,1038.819 L1685.985,942.904 L1689.674,942.904 L1689.674,1038.819 Z" class="cls-1"/>
    <path d="M79.692,81.148 L79.692,77.459 L1687.460,77.459 L1687.460,81.148 L79.692,81.148 Z" class="cls-1"/>
    <path d="M77.478,79.672 L81.167,79.672 L81.167,1038.819 L77.478,1038.819 L77.478,79.672 Z" class="cls-1"/>
    <path d="M1687.460,1036.605 L1687.460,1040.294 L79.692,1040.294 L79.692,1036.605 L1687.460,1036.605 Z" class="cls-1"/>
    <path d="M1685.985,79.672 L1689.674,79.672 L1689.674,167.471 L1685.985,167.471 L1685.985,79.672 Z" class="cls-1"/>
    <path d="M258.251,1038.819 L254.561,1038.819 L254.561,852.892 L258.251,852.892 L258.251,1038.819 Z" class="cls-1"/>
    <path d="M184.466,163.782 L180.777,163.782 L180.777,79.672 L184.466,79.672 L184.466,163.782 Z" class="cls-1"/>
    <path d="M332.035,163.782 L328.346,163.782 L328.346,79.672 L332.035,79.672 L332.035,163.782 Z" class="cls-1"/>
    <path d="M911.245,780.587 L914.934,780.587 L914.934,1038.819 L911.245,1038.819 L911.245,780.587 Z" class="cls-1"/>
    <path d="M796.141,782.062 L796.141,778.373 L913.459,778.373 L913.459,782.062 L796.141,782.062 Z" class="cls-1"/>
    <path d="M605.039,780.587 L608.728,780.587 L608.728,1038.819 L605.039,1038.819 L605.039,780.587 Z" class="cls-1"/>
    <path d="M729.735,778.373 L729.735,782.062 L607.252,782.062 L607.252,778.373 L729.735,778.373 Z" class="cls-1"/>
    <path d="M862.547,944.380 L862.547,940.691 L913.459,940.691 L913.459,944.380 L862.547,944.380 Z" class="cls-1"/>
    <path d="M663.329,940.691 L663.329,944.380 L607.252,944.380 L607.252,940.691 L663.329,940.691 Z" class="cls-1"/>
    <g>
      <g>
        <rect x="1599.778" y="167.469" width="185.91" height="98" rx="5.903" ry="5.903" class="cls-2"/>
        <text transform="translate(1692.44 212.31) scale(0.74 0.74)" class="cls-3"><tspan class="cls-4">RAM</tspan><tspan dy="1em" class="cls-4">Address</tspan></text>
      </g>
      <g>
        <path d="M1122.991,882.873 L1297.115,882.873 C1300.375,882.873 1303.018,885.515 1303.018,888.775 L1303.018,944.370 C1303.018,947.630 1300.375,950.272 1297.115,950.272 L1122.991,950.272 C1119.731,950.272 1117.088,947.630 1117.088,944.370 L1117.088,888.775 C1117.088,885.515 1119.731,882.873 1122.991,882.873 Z" class="cls-5"/>
        <text transform="translate(1210.44 926.31) scale(0.74 0.74)" class="cls-3"><tspan class="cls-4">Instruction</tspan></text>
      </g>
      <g>
        <path d="M216.931,786.493 L372.625,786.493 C375.885,786.493 378.528,789.135 378.528,792.395 L378.528,847.990 C378.528,851.250 375.885,853.892 372.625,853.892 L216.931,853.892 C213.671,853.892 211.028,851.250 211.028,847.990 L211.028,792.395 C211.028,789.135 213.671,786.493 216.931,786.493 Z" class="cls-5"/>
        <text transform="translate(294.44 830.31) scale(0.74 0.74)" class="cls-3"><tspan class="cls-4">ALU Out</tspan></text>
      </g>
      <g>
        <path d="M519.431,401.342 L575.025,401.342 C578.285,401.342 580.928,403.985 580.928,407.245 L580.928,579.900 C580.928,583.160 578.285,585.803 575.025,585.803 L519.431,585.803 C516.171,585.803 513.528,583.160 513.528,579.900 L513.528,407.245 C513.528,403.985 516.171,401.342 519.431,401.342 Z" class="cls-5"/>
        <text transform="translate(557.44 494.31) rotate(-90) scale(0.74 0.74)" class="cls-3"><tspan class="cls-4">CTL Flags</tspan></text>
      </g>
      <g>
        <path d="M735.621,678.023 L791.245,678.023 C794.505,678.023 797.148,680.665 797.148,683.925 L797.148,806.400 C797.148,809.660 794.505,812.302 791.245,812.302 L735.621,812.302 C732.361,812.302 729.718,809.660 729.718,806.400 L729.718,683.925 C729.718,680.665 732.361,678.023 735.621,678.023 Z" class="cls-5"/>
        <text transform="translate(752.44 744.31) rotate(90) scale(0.74 0.74)" class="cls-3"><tspan class="cls-4">IP</tspan></text>
      </g>
      <g>
        <path d="M801.051,838.123 L856.645,838.123 C859.905,838.123 862.548,840.765 862.548,844.025 L862.548,966.500 C862.548,969.760 859.905,972.402 856.645,972.402 L801.051,972.402 C797.791,972.402 795.148,969.760 795.148,966.500 L795.148,844.025 C795.148,840.765 797.791,838.123 801.051,838.123 Z" class="cls-5"/>
        <text transform="translate(818.44 904.31) rotate(90) scale(0.74 0.74)" class="cls-3"><tspan class="cls-4">Temp</tspan></text>
      </g>
      <g>
        <rect x="663.313" y="838.125" width="66.406" height="134.278" rx="5.903" ry="5.903" class="cls-2"/>
        <text transform="translate(685.44 904.31) rotate(90) scale(0.74 0.74)" class="cls-3"><tspan class="cls-4">Incr</tspan></text>
      </g>
      <g>
        <path d="M161.591,163.773 L284.065,163.773 C287.325,163.773 289.968,166.415 289.968,169.675 L289.968,225.270 C289.968,228.530 287.325,231.172 284.065,231.172 L161.591,231.172 C158.331,231.172 155.688,228.530 155.688,225.270 L155.688,169.675 C155.688,166.415 158.331,163.773 161.591,163.773 Z" class="cls-5"/>
        <text transform="translate(222.44 207.31) scale(0.74 0.74)" class="cls-3"><tspan class="cls-4">Temp</tspan></text>
      </g>
      <g>
        <path d="M306.211,163.773 L428.685,163.773 C431.945,163.773 434.588,166.415 434.588,169.675 L434.588,224.870 C434.588,228.130 431.945,230.773 428.685,230.773 L306.211,230.773 C302.951,230.773 300.308,228.130 300.308,224.870 L300.308,169.675 C300.308,166.415 302.951,163.773 306.211,163.773 Z" class="cls-5"/>
        <text transform="translate(366.44 207.31) scale(0.74 0.74)" class="cls-3"><tspan class="cls-4">Acc.</tspan></text>
      </g>
      <g>
        <rect x="1599.778" y="305.438" width="185.91" height="638" rx="5.903" ry="5.903" class="cls-2"/>
        <text transform="translate(1692.44 641.31) scale(0.74 0.74)" class="cls-6"><tspan class="cls-7">RAM</tspan></text>
        <g>
          <text transform="translate(1692.44 348.31) scale(0.74 0.74)" class="cls-8"><tspan class="cls-9">address</tspan></text>
          <text transform="translate(1692.44 921.31) scale(0.74 0.74)" class="cls-8"><tspan class="cls-9">data</tspan></text>
        </g>
      </g>
      <g>
        <rect x="159.376" y="305.438" width="270.062" height="442.687" rx="5.903" ry="5.903" class="cls-2"/>
        <text transform="translate(294.44 544.31) scale(0.74 0.74)" class="cls-6"><tspan class="cls-7">ALU</tspan></text>
        <g>
          <text transform="translate(222.44 349.31) scale(0.74 0.74)" class="cls-8"><tspan class="cls-9">A</tspan></text>
          <text transform="translate(366.44 349.31) scale(0.74 0.74)" class="cls-8"><tspan class="cls-9">B</tspan></text>
          <text transform="translate(294.44 724.31) scale(0.74 0.74)" class="cls-8"><tspan class="cls-9">output</tspan></text>
        </g>
      </g>
      <g>
        <rect x="663.313" y="163.781" width="710.565" height="442.687" rx="5.903" ry="5.903" class="cls-2"/>
        <text transform="translate(1018.44 402.31) scale(0.74 0.74)" class="cls-6"><tspan class="cls-7">Control Unit</tspan></text>
        <g>
          <text transform="translate(685.44 273.31) rotate(90) scale(0.74 0.74)" class="cls-8"><tspan class="cls-9">alu control</tspan></text>
          <text transform="translate(1210.44 584.31) scale(0.74 0.74)" class="cls-8"><tspan class="cls-9">instruction</tspan></text>
          <text transform="translate(809.44 584.31) scale(0.74 0.74)" class="cls-8"><tspan class="cls-9">ist. pointer</tspan></text>
          <text transform="translate(691.44 466.31) rotate(90) scale(0.74 0.74)" class="cls-8"><tspan class="cls-9">control flags</tspan></text>
        </g>
      </g>
    </g>
  </g>
</svg>
